<svg height="512" viewBox="0 0 60 60" width="512" xmlns="http://www.w3.org/2000/svg"><g id="Page-1" fill="none" fill-rule="evenodd"><g id="003---Broken-Piggy-Bank" fill-rule="nonzero"><path id="Shape" d="m28.414267 3.39208862h3.933c1.1045695 0 2 .8954305 2 2v1.967h-7.933v-1.967c0-1.1045695.8954305-2 2-2z" fill="#91562d" transform="matrix(.707 -.707 .707 .707 5.099 23.059)"/><path id="Shape" d="m44.642441 11.7088136h7.933v21.8c0 1.1045695-.8954305 2-2 2h-3.933c-1.1045695 0-2-.8954305-2-2z" fill="#91562d" transform="matrix(.707 -.707 .707 .707 -2.455 41.291)"/><path id="Shape" d="m58.414 27.8-15.414-15.412-1.5 1.5 13.914 13.912c.375248.375096.5860729.8839266.5860729 1.4145s-.2108249 1.039404-.5860729 1.4145l-2.695 2.7.086.086c.7809997.7807639 2.0470003.7807639 2.828 0l2.781-2.781c.3767803-.375297.5885784-.8852.5885784-1.417s-.2117981-1.041703-.5885784-1.417z" fill="#6d4122"/><path id="Shape" d="m47 40c0 4.22-2.33 8.04-6.08 10.76l-.72 6.46c-.1122266 1.0140558-.9697536 1.78109-1.99 1.78h-3.42c-1.0202464.00109-1.8777734-.7659442-1.99-1.78l-.31-2.8c-1.8040805.3885583-3.6445529.582998-5.49.58-1.8448351.0012894-3.684779-.189743-5.49-.57l-.31 2.79c-.1122266 1.0140558-.9697536 1.78109-1.99 1.78h-3.42c-1.0202464.00109-1.8777734-.7659442-1.99-1.78l-.71-6.45h-.01c-1.5138699-1.0795372-2.8298843-2.412467-3.89-3.94-.36887457-.5282782-.97574729-.8392068-1.62-.83h-3.57c-1.65685425 0-3-1.3431458-3-3v-6c0-1.6568542 1.34314575-3 3-3h3.57c.64223756.0107794 1.24842481-.2960562 1.62-.82 1.2767872-1.8337962 2.9133094-3.3886623 4.81-4.57 2.8381884-1.7880498 6.0325976-2.9347608 9.36-3.36.57-.08 1.15-.14 1.74-.18.5141097-.0322297.9685902.3313548 1.05.84l.78 4.65c.0431937.281094-.0329283.5674575-.21.79l-3.26 4.08c-.2797664.3374734-.3002154.8200697-.05 1.18l3.29 4.94c.1888992.281008.2227686.6385182.09.95l-2.03 4.73c-.0914031.2193674-.0265344.4727455.1590375.6212031.185572.1484575.4470096.1561245.6409625.0187969l8.81-6.41c.3699343-.2692359.5099584-.7552018.34-1.18l-1.47-3.67c-.144061-.3737749-.0538541-.7973552.23-1.08l2.13-2.13c.2501337-.2474933.3492433-.6096245.26-.95l-1.16-4.65c-.0875032-.3625666.0313067-.7438885.3092641-.9925872.2779573-.2486987.6700932-.3245387 1.0207359-.1974128 6.51 2.48 10.97 7.54 10.97 13.39z" fill="#ef314c"/><path id="Shape" d="m36.03 26.61c-.2719863-.0986857-.5732801-.0756115-.8270673.0633399s-.4355442.3803529-.4989327.6626601c5.585 2.664 9.296 7.332 9.296 12.664 0 4.22-2.33 8.04-6.08 10.76l-.72 6.46c-.1122266 1.0140558-.9697536 1.78109-1.99 1.78h3c1.0202464.00109 1.8777734-.7659442 1.99-1.78l.72-6.46c3.75-2.72 6.08-6.54 6.08-10.76 0-5.85-4.46-10.91-10.97-13.39z" fill="#bb193b"/><path id="Shape" d="m23.36 25.25c-3.3274024.4252392-6.5218116 1.5719502-9.36 3.36v-4.81c.0002896-.6109019.310409-1.1799601.8236291-1.5113306.5132201-.3313704 1.1594817-.3798181 1.7163709-.1286694z" fill="#bb193b"/><path id="Shape" d="m45.105 10.28-9.816 9.82c-.5555931.5614177-1.3126434.8773132-2.1025.8773132s-1.5469069-.3158955-2.1025-.8773132l-4.214-4.2c-1.1564125-1.1611982-1.1564125-3.0388018 0-4.2l9.817-9.83c1.165087-1.16022339 3.048913-1.16022339 4.214 0l4.2 4.205c1.160842 1.16067236 1.1626317 3.04212125.004 4.205z" fill="#7f8e94"/><path id="Shape" d="m45.105 6.075-4.2-4.2c-.9601726-.95214018-2.4412027-1.13814146-3.607-.453.2205591.12490228.4244991.27710132.607.453l4.2 4.205c1.1564125 1.16119822 1.1564125 3.03880178 0 4.2l-9.816 9.82c-.1801.1765437-.3816806.329745-.6.456 1.1627071.690942 2.6462883.5030217 3.6-.456l9.816-9.819c1.1604017-1.16189084 1.1604017-3.04410916 0-4.206z" fill="#545c60"/><g fill="#000"><path id="Shape" d="m4 47h3.573c.31656068-.0078572.61634936.1420371.8.4 1.03651026 1.4961273 2.3098579 2.8133835 3.77 3.9l.671 6.039c.1721943 1.5141007 1.4521411 2.6585692 2.976 2.661h3.42c1.5284996-.0003485 2.8123556-1.1498324 2.981-2.669l.192-1.724c1.5253037.2598682 3.0697184.3913291 4.617.393 1.5475813-.0016433 3.0921948-.135463 4.617-.4l.192 1.73c.1681725 1.519564 1.4521584 2.669595 2.981 2.67h3.42c1.5284996-.0003485 2.8123556-1.1498324 2.981-2.669l.672-6.047c3.4145521-2.3899143 5.6286128-6.1398156 6.072-10.284h4.065c1.1045695 0 2 .8954305 2 2s-.8954305 2-2 2c-.5522847 0-1-.4477153-1-1s-.4477153-1-1-1-1 .4477153-1 1c0 1.6568542 1.3431458 3 3 3 2.209139 0 4-1.790861 4-4s-1.790861-4-4-4h-4.046c-.457-5.7-4.8-10.746-11.579-13.329-.6983015-.2548184-1.4801983-.104067-2.0337075.3921032-.5535092.4961703-.788532 1.2569941-.6112925 1.9788968l1.163 4.651-2.13 2.13c-.5628085.5674177-.7394589 1.412676-.451 2.158l1.47 3.67-7.431 5.407 1.361-3.172c.2625997-.6185649.1952786-1.3278812-.179-1.886l-3.292-4.942 3.259-4.076c.3571104-.4463555.5102392-1.0222214.422-1.587l-.782-4.658c-.1662284-1.013304-1.0754875-1.7342165-2.1-1.665-.515.036-1.024.09-1.529.153l-6.558-2.975c-.8662761-.3914494-1.8719927-.3166397-2.6708201.1986677-.7988275.5153074-1.2816415 1.4007185-1.2821799 2.3513323v4.257c-1.8170805 1.2163586-3.39021274 2.7623562-4.638 4.558-.1844856.2493133-.47895485.3930023-.789.385h-3.573c-2.209139 0-4 1.790861-4 4v6c0 2.209139 1.790861 4 4 4zm11-23.2c-.0021728-.2726949.1360993-.5273272.366-.674.2267252-.148678.5142301-.1694842.76-.055l3.974 1.807c-1.7703622.4593536-3.481713 1.121747-5.1000252 1.974zm-13 13.2c0-1.1045695.8954305-2 2-2h3.573c.97221275.0104045 1.8865683-.4610016 2.442-1.259 2.923-4.289 8.73-7.23 15.149-7.665l.775 4.65-3.251 4.068c-.5586458.6780143-.6034413 1.6431547-.11 2.37l3.293 4.941-2.031 4.731c-.2693913.6333151-.0837033 1.3685389.4540999 1.7979892.5378031.4294502 1.2958897.4478558 1.8539001.0450108l8.81-6.41c.7403386-.5385968 1.0204398-1.5111244.68-2.361l-1.461-3.671 2.13-2.13c.4984208-.496074.6973437-1.2187387.523-1.9l-1.156-4.664c6.369 2.428 10.326 7.201 10.326 12.457-.1010779 3.5671512-1.7875498 6.9034326-4.6 9.1-.0907295-.0452164-.1878596-.076244-.288-.092-.5475087-.0584247-1.0392368.3367459-1.1.884l-.8 7.22c-.0560715.5066479-.4842588.8900349-.994.89h-3.428c-.5097412.0000349-.9379285-.3833521-.994-.89l-.469-4.22c-.0294645-.3630577-.2540081-.6813782-.5861411-.8309332-.3321331-.149555-.7193153-.1066863-1.0106875.111903-.2913723.2185893-.4408422.5783205-.3901714.9390302l.055.5c-2.9086174.5045193-5.8823826.5045193-8.791 0l.056-.5c.0506708-.3607097-.0987991-.7204409-.3901714-.9390302-.2913722-.2185893-.6785544-.261458-1.0106875-.111903-.332133.149555-.5566766.4678755-.5861411.8309332l-.473 4.218c-.0560715.5066479-.4842588.8900349-.994.89h-3.416c-.5097412.0000349-.9379285-.3833521-.994-.89l-.72-6.477c0-.012 0-.024 0-.036l-.078-.707c-.0607632-.5472541-.5524913-.9424247-1.1-.884-.1048098.0166458-.2061647.0504307-.3.1-.9774609-.8261523-1.8401002-1.7792594-2.565-2.834-.55741583-.8067438-1.47948213-1.2835196-2.46-1.272h-3.573c-1.1045695 0-2-.8954305-2-2z"/><circle id="Oval" cx="15" cy="34" r="1"/><path id="Shape" d="m26.164 16.6 4.21 4.2c.7429782.750302 1.7550787 1.1724384 2.811 1.1724384s2.0680218-.4221364 2.811-1.1724384l1.394-1.395 14.71 14.716c1.1714996 1.1711458 3.0705004 1.1711458 4.242 0l2.782-2.781c1.1711458-1.1714996 1.1711458-3.0705004 0-4.242l-14.711-14.712 1.4-1.4c1.5490166-1.55273137 1.5490166-4.06626863 0-5.619l-4.208-4.207c-1.5602769-1.53731699-4.0657231-1.53731699-5.626 0l-1.393 1.397-.686-.682c-.5626237-.56271905-1.3257625-.87885933-2.1215-.87885933s-1.5588763.31614028-2.1215.87885933l-2.778 2.782c-1.1711458 1.17149955-1.1711458 3.07050045 0 4.242l.683.683-1.4 1.4c-1.5467005 1.5536207-1.5458063 4.0654809.002 5.618zm31.544 13.326-2.782 2.781c-.3904999.3903819-1.0235001.3903819-1.414 0l-14.706-14.707 4.194-4.2 14.708 14.712c.3903819.3904999.3903819 1.0235001 0 1.414zm-29.414-22.441c-.3903819-.39049985-.3903819-1.02350015 0-1.414l2.781-2.781c.1875683-.18777704.4420908-.29328666.7075-.29328666s.5199317.10550962.7075.29328666l.682.681-4.195 4.2zm-.717 4.915 2.1-2.1.009-.006 5.609-5.61.005-.008 2.091-2.096c.3706624-.3725081.8744975-.58193683 1.4-.58193683s1.0293376.20942873 1.4.58193683l4.2 4.205c.7688054.77150268.7688054 2.01949732 0 2.791l-9.813 9.824c-.7760779.7538292-2.0109221.7538292-2.787 0l-4.214-4.2c-.372015-.3709248-.5811028-.8746616-.5811028-1.4s.2090878-1.0290752.5811028-1.4z"/><path id="Shape" d="m32.478 17.3c.3923789.3789722 1.0160848.3735524 1.4018186-.0121814s.3911536-1.0094397.0121814-1.4018186l-2.1-2.092 5.12-5.121c.2599566-.25107447.3642126-.62287789.2726972-.97250732-.0915155-.34962944-.3645604-.6226744-.7141899-.71418984-.3496294-.09151544-.7214328.01274058-.9725073.27269716l-5.12 5.121c-.7760812.7782524-.7760812 2.0377476 0 2.816z"/></g></g></g></svg>