<svg id="filled_ouitline" height="512" viewBox="0 0 512 512" width="512" xmlns="http://www.w3.org/2000/svg" data-name="filled ouitline"><circle cx="256" cy="222.138" fill="#ecab2c" r="86.138"/><path d="m168 24 50.69 4.608a56.982 56.982 0 0 1 51.382 49.679l3.071 24.57h-27.806a56.982 56.982 0 0 1 -49.81-29.308z" fill="#9cb26d"/><path d="m352 24-50.69 4.608a56.982 56.982 0 0 0 -51.382 49.679l-3.071 24.57h27.806a56.982 56.982 0 0 0 49.81-29.308z" fill="#b5cf7f"/><path d="m286.435 272h-60.87a84.971 84.971 0 0 0 -40.4-27.4l-1.165-.365 4.216 34.981a100.369 100.369 0 0 0 -50.768 45.474 36.913 36.913 0 0 1 -32.548 19.31h-.9v48a32.4 32.4 0 0 1 29.726 19.619 100.388 100.388 0 0 0 42.274 47.25v29.131h40v-16.458c3.149.3 6.338.458 9.565.458h60.87c3.227 0 6.416-.159 9.565-.458v16.458h40v-29.131a99.962 99.962 0 0 0 50.435-86.869 100 100 0 0 0 -100-100z" fill="#ffa6b7"/><circle cx="184" cy="336" fill="#e57c90" r="16"/><path d="m306.541 247.583a7.993 7.993 0 0 0 10.132-5.033 63.886 63.886 0 0 0 3.327-20.412 65.135 65.135 0 0 0 -.379-7 8 8 0 0 0 -15.907 1.734 48.661 48.661 0 0 1 .286 5.271 47.919 47.919 0 0 1 -2.492 15.312 8 8 0 0 0 5.033 10.128z"/><path d="m200 230.138a8 8 0 0 0 8-8 47.922 47.922 0 0 1 6.852-24.732 8 8 0 1 0 -13.7-8.258 63.915 63.915 0 0 0 -9.152 32.99 8 8 0 0 0 8 8z"/><path d="m130.4 320.9a28.849 28.849 0 0 1 -25.5 15.1h-.9a8 8 0 0 0 -8 8v48a8 8 0 0 0 8 8 24.4 24.4 0 0 1 22.382 14.792 108.954 108.954 0 0 0 41.618 48.598v24.61a8 8 0 0 0 8 8h40a8 8 0 0 0 8-8v-8.012c.523.008 63.477.008 64 0v8.012a8 8 0 0 0 8 8h40a8 8 0 0 0 8-8v-24.608a108.4 108.4 0 0 0 49.841-80.206 43.729 43.729 0 0 0 43.918-14.667 8 8 0 0 0 -12.368-10.15 27.67 27.67 0 0 1 -31.091 8.231 108.171 108.171 0 0 0 -60.415-91.6 94.124 94.124 0 0 0 -69.885-146.657v-17.486h10.663a65.015 65.015 0 0 0 56.8-33.423l27.527-49.549a8 8 0 0 0 -7.717-11.852l-50.69 4.608a65.208 65.208 0 0 0 -39.285 18c-.446.431-.875.877-1.307 1.32a65.2 65.2 0 0 0 -40.58-19.318l-50.69-4.608a8 8 0 0 0 -7.717 11.852l27.527 49.549a65.015 65.015 0 0 0 56.8 33.423h2.669v17.486a94.123 94.123 0 0 0 -69.89 146.648 108.424 108.424 0 0 0 -47.71 45.907zm127.466-241.62a49.27 49.27 0 0 1 44.169-42.7l35.627-3.239-20.182 36.323a49.006 49.006 0 0 1 -42.817 25.193h-18.744zm-15.876-1.98-2.153 17.228a49 49 0 0 1 -37.317-24.864l-20.182-36.328 35.627 3.239a49.15 49.15 0 0 1 32.235 16.331 65.1 65.1 0 0 0 -8.21 24.394zm-64.128 144.838a78.138 78.138 0 1 1 140.738 46.754 107.633 107.633 0 0 0 -32.165-4.892h-3.293a28.8 28.8 0 0 0 -11.069-41.77l-24.991-12.495a12.812 12.812 0 0 1 -1.377-22.119 18.508 18.508 0 0 1 20.59 0 12.781 12.781 0 0 1 5.7 10.659v4.862a8 8 0 1 0 16 0v-4.862a28.754 28.754 0 0 0 -12.825-23.975 34.627 34.627 0 0 0 -11.17-4.861v-6.3a8 8 0 0 0 -16 0v6.3a34.627 34.627 0 0 0 -11.17 4.864 28.811 28.811 0 0 0 3.1 49.742l24.991 12.5a12.812 12.812 0 0 1 1.379 22.115 18.512 18.512 0 0 1 -20.59 0 12.788 12.788 0 0 1 -5.71-10.66v-4.862a8 8 0 0 0 -16 0v4.862a28.767 28.767 0 0 0 3.972 14.59 92.661 92.661 0 0 0 -40.411-25.621l-1.161-.369a7.985 7.985 0 0 0 -6.985 1.094 78.717 78.717 0 0 1 -1.553-15.556zm13.345 64.5a8 8 0 0 0 4.952-8.377l-2.619-21.728a76.761 76.761 0 0 1 25.823 20.521 8 8 0 0 0 6.2 2.948h60.87a92.1 92.1 0 0 1 92 91.955v.068a92.291 92.291 0 0 1 -46.406 79.9 8 8 0 0 0 -4.027 6.944v21.131h-24v-8.458a8 8 0 0 0 -8.756-7.964c-2.948.28-5.912.422-8.809.422h-60.87c-2.9 0-5.86-.142-8.809-.422a8 8 0 0 0 -8.756 7.964v8.458h-24v-21.131a8 8 0 0 0 -4.029-6.945 92.8 92.8 0 0 1 -38.9-43.477 40.449 40.449 0 0 0 -29.071-23.647v-33.354a44.727 44.727 0 0 0 32.494-22.966 92.357 92.357 0 0 1 46.713-41.844z"/><circle cx="184" cy="336" r="16"/><path d="m283.156 312a45.8 45.8 0 0 1 38.188 20.438 8 8 0 0 0 13.312-8.876 61.774 61.774 0 0 0 -51.5-27.562 8 8 0 1 0 0 16z"/><path d="m240 312h8a8 8 0 0 0 0-16h-8a8 8 0 0 0 0 16z"/></svg>